<svg width="77" height="69" viewBox="0 0 77 69" fill="none" xmlns="http://www.w3.org/2000/svg">
<g filter="url(#filter0_i)">
<path d="M73.0329 11.7371C74.1463 12.1195 76.2559 12.8811 76.6118 13.2794C77.0785 13.8016 74.4188 13.824 74.1896 13.825C74.1779 13.825 74.1691 13.8249 74.1575 13.8245C73.9684 13.8191 72.2039 13.7789 71.8579 14.166C71.5089 14.5566 71.2709 16.0653 71.2499 16.2021L71.2468 16.2219C71.2231 16.3649 70.9569 18.0298 71.2484 19.0083C71.5385 19.9821 71.8286 20.6469 71.8558 20.7087L71.8597 20.7175C71.9064 20.8256 72.8498 23.0151 73.5035 25.0101C74.1739 27.0561 74.1739 29.0339 74.1739 30.2616C74.1739 31.4892 73.5644 34.8311 72.955 36.2633C72.3455 37.6955 71.0046 41.242 70.517 42.4014C70.0294 43.5609 67.9572 46.2889 66.5554 48.1304C65.1536 49.9718 62.2281 52.086 61.3748 52.8363C60.5215 53.5865 58.9369 54.2003 57.2303 55.0187C55.5238 55.8371 53.8172 56.1781 52.903 56.4509C52.614 56.5372 52.252 56.5689 51.8919 56.5719C51.1642 56.5781 50.5587 57.2496 50.7483 57.9523L52.808 65.5857C52.8652 65.7979 52.7859 66.0234 52.6085 66.153C52.3312 66.3556 51.9374 66.2458 51.805 65.9289L48.0055 56.8367C47.9024 56.5899 47.7046 56.3947 47.4565 56.2947L46.3206 55.8371L45.918 55.6826C45.1751 55.3976 44.4131 56.0522 44.5828 56.8296L47.0413 68.0907C47.0809 68.2721 47.013 68.4602 46.8665 68.5744C46.6016 68.7809 46.2121 68.6606 46.1098 68.3407L41.789 54.8275C41.6565 54.4132 41.2755 54.0788 40.8672 53.929C40.6203 53.8385 40.2924 53.7076 39.8601 53.5183C38.4698 52.9095 36.8398 51.6299 36.813 51.6089L36.8114 51.6076L33.9251 49.3198C33.8998 49.2998 33.8768 49.2798 33.8536 49.2575C33.5734 48.9883 31.6088 47.1061 30.535 46.2207C30.1558 45.908 29.7373 45.5953 29.346 45.3161C28.7073 44.8605 28.7657 43.8653 29.4706 43.521L44.1874 36.3315L18.6243 45.1006C17.6766 45.4257 16.8928 44.31 17.52 43.5287L18.5892 42.1968L2.40131 49.7395C1.5657 50.1289 0.693091 49.2762 1.06299 48.4319L1.3816 47.7045C1.47354 47.4947 1.62347 47.3286 1.82688 47.2231C4.28567 45.948 20.91 37.3013 22.4899 35.7859C23.8476 34.4837 26.4397 31.1094 27.4428 29.7843C27.6137 29.5584 27.4507 29.2386 27.1674 29.2386C26.8597 29.2386 26.7065 28.8657 26.9252 28.6493L30.0547 25.5534C30.2311 25.3789 30.1075 25.0783 29.8594 25.0783C29.6328 25.0783 29.5016 24.8215 29.6343 24.6379L31.612 21.9006C31.6254 21.8821 31.6378 21.8637 31.6499 21.8443C31.8148 21.5803 33.0863 19.55 33.8262 18.5309C34.5336 17.5567 36.0182 15.6041 36.3285 15.1965C36.3675 15.1453 36.4103 15.0993 36.4584 15.0565L38.3966 13.3342C38.4377 13.2978 38.4805 13.2654 38.5271 13.2363C38.8823 13.0143 40.5309 11.991 41.5057 11.5062C42.5284 10.9976 45.5635 8.53326 45.9706 8.20132C46.0016 8.17602 46.0311 8.15462 46.0648 8.13306C46.4324 7.89815 48.7657 6.39937 49.5509 5.70905C50.347 5.0091 52.0981 3.53734 52.3291 3.34328C52.3464 3.32875 52.3625 3.31616 52.3808 3.30287C52.6674 3.09438 55.2238 1.24113 56.3161 0.662147C57.4741 0.0483343 60.3996 -0.0880686 61.3748 0.0483343C62.35 0.184737 65.2145 0.662147 66.2507 1.20776C67.2868 1.75337 69.1152 3.52661 69.7857 4.20862C70.4561 4.89064 71.3703 6.93668 71.8579 8.16431C72.1637 8.93434 72.2777 10.0532 72.3202 10.7803C72.3455 11.2128 72.6232 11.5964 73.0329 11.7371Z" fill="#ED503A"/>
</g>
<defs>
<filter id="filter0_i" x="0.975605" y="0" width="76.6911" height="68.6767" filterUnits="userSpaceOnUse" color-interpolation-filters="sRGB">
<feFlood flood-opacity="0" result="BackgroundImageFix"/>
<feBlend mode="normal" in="SourceGraphic" in2="BackgroundImageFix" result="shape"/>
<feColorMatrix in="SourceAlpha" type="matrix" values="0 0 0 0 0 0 0 0 0 0 0 0 0 0 0 0 0 0 127 0" result="hardAlpha"/>
<feOffset dx="4"/>
<feGaussianBlur stdDeviation="0.5"/>
<feComposite in2="hardAlpha" operator="arithmetic" k2="-1" k3="1"/>
<feColorMatrix type="matrix" values="0 0 0 0 0 0 0 0 0 0 0 0 0 0 0 0 0 0 0.14 0"/>
<feBlend mode="normal" in2="shape" result="effect1_innerShadow"/>
</filter>
</defs>
</svg>
