<svg width="43" height="39" viewBox="0 0 43 39" fill="none" xmlns="http://www.w3.org/2000/svg">
<path d="M28 13.1829V4C28 2.34315 26.6569 1 25 1H4C2.34315 1 1 2.34315 1 4V35C1 36.6569 2.34315 38 4 38H25C26.6569 38 28 36.6569 28 35V25" stroke="#FF3E3E" stroke-width="2"/>
<path d="M30.7872 14.95H19C18.4477 14.95 18 15.3977 18 15.95V22.5C18 23.0523 18.4477 23.5 19 23.5H30.7872C31.3395 23.5 31.7872 23.9477 31.7872 24.5V25.7859C31.7872 26.6467 32.8026 27.1052 33.4484 26.5361L41.1487 19.7502C41.6004 19.3521 41.6004 18.6479 41.1487 18.2498L33.4484 11.4639C32.8026 10.8948 31.7872 11.3533 31.7872 12.2141V13.95C31.7872 14.5023 31.3395 14.95 30.7872 14.95Z" stroke="#FF3E3E" stroke-width="2"/>
</svg>
