<svg width="45" height="44" viewBox="0 0 45 44" fill="none" xmlns="http://www.w3.org/2000/svg">
<path d="M42.9783 5.76723C43.3987 5.92077 43.8751 6.1127 43.9783 6.22768C44.1574 6.42712 43.1725 6.44137 43.0308 6.44239C43.0192 6.44248 43.0084 6.44227 42.9969 6.44199C42.8825 6.43919 42.2297 6.42986 42.0978 6.57671C41.9642 6.72555 41.8717 7.28695 41.8584 7.37149L41.855 7.39285C41.8405 7.48204 41.745 8.1095 41.8568 8.48297C41.9677 8.85371 42.0787 9.11069 42.0956 9.14918L42.0999 9.15885C42.1302 9.22881 42.4948 10.0742 42.7488 10.8457C43.014 11.6511 43.014 12.4297 43.014 12.913C43.014 13.3963 42.7729 14.7119 42.5318 15.2757C42.2907 15.8395 41.7603 17.2357 41.5674 17.6921C41.3746 18.1485 40.5549 19.2225 40.0004 19.9474C39.4459 20.6723 38.2887 21.5046 37.9511 21.7999C37.6136 22.0953 36.9868 22.3369 36.3118 22.6591C35.6367 22.9813 34.9617 23.1155 34.6 23.2229C34.1429 23.3587 33.7294 23.7463 33.8541 24.2065L34.5621 26.8179C34.585 26.902 34.5534 26.9915 34.4829 27.0428C34.3734 27.1224 34.2182 27.0791 34.1657 26.9542L32.7609 23.6084C32.6573 23.3618 32.4593 23.1669 32.211 23.0674L31.9963 22.9813C31.6339 22.8429 31.2629 23.1625 31.346 23.5413L32.2812 27.8042C32.297 27.8761 32.2699 27.9508 32.2117 27.9959C32.107 28.0772 31.9534 28.0297 31.9129 27.9035L30.3356 22.9942C30.2046 22.5865 29.8333 22.2395 29.4408 22.0684C28.8978 21.8318 28.2624 21.3378 28.2362 21.3173L28.2341 21.3157L27.1161 20.4337C27.0908 20.4138 27.0668 20.393 27.0435 20.3707C26.8777 20.2125 26.1558 19.5269 25.7521 19.1956C25.3149 18.8368 25.3526 18.1224 25.8613 17.875L31.1525 15.3026L21.6751 18.5381C21.1168 18.7287 20.6564 18.0707 21.0268 17.6115L14.8708 20.4662C14.4542 20.6594 14.0203 20.2339 14.2053 19.8136C14.2513 19.7091 14.3277 19.6256 14.4292 19.5732C15.508 19.0163 21.9515 15.678 22.5698 15.0878C23.1066 14.5753 24.1314 13.2478 24.5285 12.7257C24.5962 12.6367 24.532 12.5103 24.4201 12.5103C24.2986 12.5103 24.2383 12.363 24.3249 12.2777L25.5616 11.0601C25.6315 10.9913 25.5828 10.8725 25.4848 10.8725C25.3953 10.8725 25.3436 10.7711 25.3962 10.6987L26.1703 9.63236C26.1808 9.61787 26.1908 9.60309 26.2003 9.58793C26.2889 9.44691 26.7703 8.68393 27.054 8.29503C27.3125 7.94067 27.8336 7.25743 28.0081 7.02905C28.0472 6.97787 28.0909 6.93111 28.1391 6.88844L28.8245 6.28229C28.8656 6.24594 28.9094 6.21319 28.956 6.18433C29.1555 6.06093 29.7366 5.70538 30.0917 5.52961C30.478 5.3384 31.5904 4.445 31.83 4.25118C31.861 4.22604 31.8923 4.20354 31.926 4.18203C32.1404 4.04516 32.9806 3.50425 33.2741 3.24747C33.5751 2.98406 34.2213 2.44299 34.3575 2.3291C34.3749 2.31462 34.3921 2.30117 34.4104 2.28796C34.5837 2.16279 35.5347 1.47983 35.9501 1.26067C36.4082 1.01903 37.5654 0.96533 37.9511 1.01903C38.3369 1.07273 39.47 1.26067 39.8798 1.47546C40.2897 1.69025 41.0129 2.38831 41.2781 2.6568C41.5433 2.92529 41.905 3.73075 42.0978 4.21403C42.1659 4.38463 42.21 4.59873 42.2385 4.80436C42.298 5.23401 42.5709 5.61842 42.9783 5.76723Z" stroke="#C8C8C8"/>
<path d="M1 22.859C1 22.859 2.73509 27.2975 4.3972 28.1218C6.05932 28.9461 7.70301 32.4968 9.8208 32.4968C11.9386 32.4968 16.6158 32.8242 18.7608 32.4968C20.9058 32.1695 24.8251 30.5652 27.2836 30.0874C29.7421 29.6096 38.0404 25.2795 39.3228 25.3953C40.6053 25.5111 39.3228 27.2975 39.3228 27.2975C39.3228 27.2975 33.4905 30.3565 31.2768 31.2287C29.0632 32.1009 23.7457 34.0363 22.2176 34.7161C20.6895 35.3959 11.5492 36.9987 11.5492 36.9987C11.5492 36.9987 7.39468 38.2735 5.2912 38.9643C3.18772 39.6552 1 43.593 1 43.593" stroke="#C8C8C8"/>
</svg>
